<svg width="120" height="120" viewBox="0 0 120 120" fill="none" xmlns="http://www.w3.org/2000/svg">
<g id="Interface / Slider_02">
<path id="Vector" d="M70 90H105M15 90H25M25 90C25 96.9036 30.5964 102.5 37.5 102.5C44.4036 102.5 50 96.9036 50 90C50 83.0964 44.4036 77.5 37.5 77.5C30.5964 77.5 25 83.0964 25 90ZM100 60H105M15 60H50M65 30H105M65 30C65 23.0964 59.4036 17.5 52.5 17.5C45.5964 17.5 40 23.0964 40 30C40 36.9036 45.5964 42.5 52.5 42.5C59.4036 42.5 65 36.9036 65 30ZM15 30H20M82.5 72.5C75.5964 72.5 70 66.9036 70 60C70 53.0964 75.5964 47.5 82.5 47.5C89.4036 47.5 95 53.0964 95 60C95 66.9036 89.4036 72.5 82.5 72.5Z" stroke="white" stroke-width="10" stroke-linecap="round" stroke-linejoin="round"/>
</g>
</svg>
